# xmcd
#
# Track frame offsets:
#	150
#	4991
#	9757
#	11971
#	14185
#	16249
#	18295
#	20234
#	22150
#	24248
#	26337
#	37568
#	48799
#	53224
#	57649
#	58811
#	59994
#	61298
#	62625
#	63799
#	64973
#	66267
#	67561
#	78442
#	89257
#	90397
#	91537
#	92799
#	94058
#	102394
#	110709
#	112521
#	114333
#	116359
#	118430
#	120263
#	122065
#	126339
#	130613
#	132406
#	134148
#	136192
#	138236
#	139955
#	141689
#	152814
#	163932
#	165727
#	167523
#	169599
#	171675
#	173397
#	175135
#	184971
#	194800
#	196818
#	198836
#	201334
#	203849
#	214914
#	225991
#	235310
#	244639
#	254958
#	265218
#	274936
#
# Disc length: 3794 seconds
#
# Revision: 1
# Processed by: cddbd v1.5.2PL0 Copyright (c) Steve Scherf et al.
# Submitted via: audiograbber 1.83.01
#
DISCID=bf0ed042
DTITLE=Michael Gundlach - Blues Saxophon - CD 2
DYEAR=2012
DGENRE=Saxophon
TTITLE0=Straight Forward (Swing) - Demo
TTITLE1=Straight Forward (Swing) - Playalong
TTITLE2=Übung 34 (B-Major7-Vierton-Reihen) - Demo
TTITLE3=Übung 34 (B-Major7-Vierton-Reihen) - Playalong
TTITLE4=Übung 35 (B-Major7-Vierton-Reihen) - Demo
TTITLE5=Übung 35 (B-Major7-Vierton-Reihen) - Playalong
TTITLE6=Übung 36 (B-Major7-Vierton-Reihen) - Demo
TTITLE7=Übung 36 (B-Major7-Vierton-Reihen) - Playalong
TTITLE8=Übung 37 (B-Major7-Vierton-Reihen) - Demo
TTITLE9=Übung 37 (B-Major7-Vierton-Reihen) - Playalong
TTITLE10=Smoothy (Bossa Nova) - Demo
TTITLE11=Smoothy (Bossa Nova) - Playalong
TTITLE12=Whats's Up? (Half Time Funk) - Demo
TTITLE13=Whats's Up? (Half Time Funk) - Playalong
TTITLE14=Übung 38 (Kombination A and C) - Demo
TTITLE15=Übung 38 (Kombination A and C) - Playalong
TTITLE16=Übung 39 (Kombination A and C) - Demo
TTITLE17=Übung 39 (Kombination A and C) - Playalong
TTITLE18=Übung 40 (Kombination A and C) - Demo
TTITLE19=Übung 40 (Kombination A and C) - Playalong
TTITLE20=Übung 41 (Kombination A and C) - Demo
TTITLE21=Übung 41 (Kombination A and C) - Playalong
TTITLE22=Easy Livin' (Shuffle) - Demo
TTITLE23=Easy Livin' (Shuffle) - Playalong
TTITLE24=Übung 42 (Kombination D and B) - Demo
TTITLE25=Übung 42 (Kombination D and B) - Playalong
TTITLE26=Übung 43 (Kombination D and B) - Demo
TTITLE27=Übung 43 (Kombination D and B) - Playalong
TTITLE28=Blues Boy (Rock 'n' Roll) - Demo
TTITLE29=Blues Boy (Rock 'n' Roll) - Playalong
TTITLE30=Übung 44 (C-Dur-Pentatonik) - Demo
TTITLE31=Übung 44 (C-Dur-Pentatonik) - Playalong
TTITLE32=Übung 45 (C-Dur-Pentatonik) - Demo
TTITLE33=Übung 45 (C-Dur-Pentatonik) - Playalong
TTITLE34=Übung 46 (C-Dur-Pentatonik) - Demo
TTITLE35=Übung 46 (C-Dur-Pentatonik) - Playalong
TTITLE36=Little Penta-Blues (Shuffle) - Demo
TTITLE37=Little Penta-Blues (Shuffle) - Playalong
TTITLE38=Übung 47 (A-Dur-Pentatonik) - Demo
TTITLE39=Übung 47 (A-Dur-Pentatonik) - Playalong
TTITLE40=Übung 48 (A-Dur-Pentatonik) - Demo
TTITLE41=Übung 48 (A-Dur-Pentatonik) - Playalong
TTITLE42=Übung 49 (A-Dur-Pentatonik) - Demo
TTITLE43=Übung 49 (A-Dur-Pentatonik) - Playalong
TTITLE44=In the Sky (R 'n' B) - Demo
TTITLE45=In the Sky (R 'n' B) - Playalong
TTITLE46=Übung 50 (G-Dur-Pentatonik) - Demo
TTITLE47=Übung 50 (G-Dur-Pentatonik) - Playalong
TTITLE48=Übung 51 (G-Dur-Pentatonik) - Demo
TTITLE49=Übung 51 (G-Dur-Pentatonik) - Playalong
TTITLE50=Übung 52 (G-Dur-Pentatonik) - Demo
TTITLE51=Übung 52 (G-Dur-Pentatonik) - Playalong
TTITLE52=Saturday Night (Disco 80's) - Demo
TTITLE53=Saturday Night (Disco 80's) - Playalong
TTITLE54=Übung 53 (Tonwiederholung) - Demo
TTITLE55=Übung 53 (Tonwiederholung) - Playalong
TTITLE56=Übung 54 (Phasenveränderung) - Demo
TTITLE57=Übung 54 (Phasenveränderung) - Playalong
TTITLE58=Little Joe (Country) - Demo
TTITLE59=Little Joe (Country) - Playalong
TTITLE60=Bob's Reggae (Reggae) - Demo
TTITLE61=Bob's Reggae (Reggae) - Playalong
TTITLE62=Funky Joe (Funk) - Demo
TTITLE63=Funky Joe (Funk) - Playalong
TTITLE64=Blue Salsa (Salsa) - Demo
TTITLE65=Blue Salsa (Salsa) - Playalong
EXTD=
EXTT0=
EXTT1=
EXTT2=
EXTT3=
EXTT4=
EXTT5=
EXTT6=
EXTT7=
EXTT8=
EXTT9=
EXTT10=
EXTT11=
EXTT12=
EXTT13=
EXTT14=
EXTT15=
EXTT16=
EXTT17=
EXTT18=
EXTT19=
EXTT20=
EXTT21=
EXTT22=
EXTT23=
EXTT24=
EXTT25=
EXTT26=
EXTT27=
EXTT28=
EXTT29=
EXTT30=
EXTT31=
EXTT32=
EXTT33=
EXTT34=
EXTT35=
EXTT36=
EXTT37=
EXTT38=
EXTT39=
EXTT40=
EXTT41=
EXTT42=
EXTT43=
EXTT44=
EXTT45=
EXTT46=
EXTT47=
EXTT48=
EXTT49=
EXTT50=
EXTT51=
EXTT52=
EXTT53=
EXTT54=
EXTT55=
EXTT56=
EXTT57=
EXTT58=
EXTT59=
EXTT60=
EXTT61=
EXTT62=
EXTT63=
EXTT64=
EXTT65=
PLAYORDER=
